<svg width="276" height="128" viewBox="0 0 276 128" fill="none" xmlns="http://www.w3.org/2000/svg">
<path d="M35.12 70.76C35.12 66.44 37.68 63.88 42.08 63.88C46.64 63.88 48.4 66.84 48.4 70.76V93H59.28V70.76C59.28 66.44 61.84 63.88 66.24 63.88C70.8 63.88 72.64 66.84 72.64 70.76V93H83.52V67.64C83.52 59.48 80 54.04 71.76 54.04C65.28 54.04 61.04 57.08 59.36 65.96H59.2C58.8 58.76 55.28 54.04 47.6 54.04C41.52 54.04 36.96 57 35.2 65.72H35.12V55.08H24.16V93H35.12V70.76ZM105.438 63.08C110.318 63.08 112.798 65.64 113.118 70.68H97.1175C97.8375 65.32 100.638 63.08 105.438 63.08ZM105.598 94.04C115.998 94.04 120.958 88.76 122.798 81.88L113.358 79.24C112.478 82.2 110.798 84.68 105.758 84.68C100.638 84.68 97.7575 82.28 97.0375 76.84H122.958C123.118 74.76 123.118 73.48 123.118 71.8C123.118 61.48 117.438 54.04 105.758 54.04C93.4375 54.04 86.1575 61.72 86.1575 74.84C86.1575 87.48 94.1575 94.04 105.598 94.04ZM143.395 84.28C137.795 84.28 135.395 80.52 135.395 74.28C135.395 67.64 137.875 63.8 143.395 63.8C148.355 63.8 151.395 67.64 151.395 73.8V74.52C151.395 80.76 148.355 84.28 143.395 84.28ZM151.395 93H162.275V43.96H151.395V65.4H151.235C149.395 57.32 145.235 53.96 138.675 54.04C129.555 53.96 124.595 61.48 124.595 74.28C124.595 86.6 129.315 94.12 138.515 94.12C144.995 94.12 149.315 90.76 151.155 82.76H151.395V93ZM178.022 51.08V43.96H166.662V51.08H178.022ZM177.862 93V55.08H166.902V93H177.862ZM193.401 43.96H182.441V93H193.401V43.96ZM215.994 94.12C228.154 94.12 235.594 86.52 235.594 74.04C235.594 61.4 227.914 54.04 215.994 54.04C203.994 54.04 196.314 61.4 196.314 74.04C196.314 86.52 203.754 94.12 215.994 94.12ZM215.994 63.96C221.514 63.96 224.714 67.88 224.714 73.96C224.714 80.12 221.594 84.12 215.914 84.12C210.314 84.12 207.274 80.12 207.274 73.96C207.274 67.88 210.394 63.96 215.994 63.96ZM264.537 71.56L275.097 70.04C273.577 59.88 268.617 54.04 256.697 54.04C244.777 54.04 237.017 61.48 237.017 74.28C237.017 87.4 244.937 94.12 256.937 94.12C268.297 94.12 273.817 87.8 275.097 77.88L264.617 75.88C263.657 80.68 261.737 84.12 256.697 84.12C251.577 84.12 248.217 80.76 248.217 73.96C248.217 67 251.737 63.96 256.617 63.96C261.497 63.96 263.657 67.16 264.537 71.56Z" fill="white"/>
<path d="M28.552 120.312C32.374 120.312 34.688 117.842 34.688 113.89C34.688 109.912 32.192 107.546 28.552 107.546C24.86 107.546 22.364 109.912 22.364 113.89C22.364 117.842 24.678 120.312 28.552 120.312ZM28.526 109.626C30.97 109.626 32.426 111.264 32.426 113.864C32.426 116.49 31.022 118.232 28.526 118.232C26.004 118.232 24.626 116.49 24.626 113.864C24.626 111.264 26.108 109.626 28.526 109.626ZM42.1228 118.284C39.8348 118.284 38.3788 116.594 38.3788 113.994V113.812C38.3788 111.108 39.8348 109.6 42.1228 109.6C44.5668 109.6 45.7108 111.16 45.7108 113.89C45.7108 116.672 44.4888 118.284 42.1228 118.284ZM47.9468 113.89C47.9468 109.99 46.2308 107.546 42.9548 107.546C40.3808 107.546 38.9508 109.002 38.4308 111.42H38.3788V107.858H36.1168V123.588H38.3788V116.386H38.4048C38.8988 118.83 40.3028 120.312 42.9808 120.312C46.1268 120.312 47.9468 117.868 47.9468 113.89ZM50.2281 116.386C50.2281 118.648 51.3461 120.312 53.8941 120.312C55.0121 120.312 55.6621 120.156 56.4941 119.896L56.2081 117.816C55.5581 117.998 55.0121 118.128 54.3621 118.128C53.0101 118.128 52.4901 117.426 52.4901 116.074V109.808H56.3641V107.858H52.4901V104.504H50.2281V107.858H48.4341V109.808H50.2281V116.386ZM60.3508 105.986V104.062H57.7768V105.986H60.3508ZM60.1688 120V107.858H57.9328V120H60.1688ZM64.8104 112.798C64.8104 110.77 66.0584 109.6 68.1384 109.6C70.3484 109.6 71.0504 111.134 71.0504 112.798V120H73.3124V112.798C73.3124 110.77 74.5604 109.6 76.6404 109.6C78.8504 109.6 79.5524 111.134 79.5524 112.798V120H81.8144V112.226C81.8144 109.626 80.7224 107.546 77.5244 107.546C75.1584 107.546 73.7284 108.742 73.2864 111.342H73.2604C73.0264 109.158 71.8564 107.546 69.0744 107.546C66.9424 107.546 65.3564 108.664 64.8364 111.134H64.8104V107.858H62.5484V120H64.8104V112.798ZM86.4778 105.986V104.062H83.9038V105.986H86.4778ZM86.2958 120V107.858H84.0598V120H86.2958ZM94.9934 117.972C93.6934 117.972 92.2374 117.998 90.9374 118.024L90.9114 117.972L98.7114 109.886V107.858H88.3894V109.886H91.3274C92.8614 109.886 94.5254 109.86 95.9554 109.834L95.9814 109.86L88.1814 117.972V120H98.8414V117.972H94.9934ZM103.21 105.986V104.062H100.636V105.986H103.21ZM103.028 120V107.858H100.792V120H103.028ZM107.67 112.798C107.67 110.77 108.918 109.6 110.998 109.6C113.208 109.6 113.91 111.134 113.91 112.798V120H116.172V112.226C116.172 109.626 115.08 107.546 111.934 107.546C109.802 107.546 108.216 108.664 107.696 111.134H107.67V107.858H105.408V120H107.67V112.798ZM122.755 109.756C124.783 109.756 125.823 110.64 125.823 112.122C125.823 113.604 124.939 114.436 122.807 114.436C120.675 114.436 119.843 113.578 119.843 112.122C119.843 110.666 120.701 109.756 122.755 109.756ZM122.989 122.158C119.739 122.158 118.881 121.768 118.881 120.728C118.881 120.026 119.505 119.324 120.987 119.324H125.745C126.889 119.324 127.279 119.87 127.279 120.494C127.279 121.612 126.525 122.158 122.989 122.158ZM129.151 120.494C129.151 118.674 128.059 117.608 125.641 117.608C124.263 117.608 122.651 117.686 121.169 117.686C120.415 117.686 119.999 117.478 119.999 116.984C119.999 116.724 120.155 116.568 120.337 116.256L120.675 115.762C121.273 115.918 121.975 116.022 122.755 116.022C126.057 116.022 127.799 114.826 127.799 112.564C127.799 110.77 126.577 110.068 124.939 109.782V109.73C125.849 109.782 126.421 109.808 127.045 109.808H128.787V107.858H122.937C119.687 107.858 117.789 109.34 117.789 112.044C117.789 113.838 118.751 115.138 120.519 115.71L119.583 116.204C118.751 116.542 118.205 117.114 118.205 117.712C118.205 118.596 118.881 119.116 119.869 119.272C118.023 119.532 117.061 120.338 117.061 121.378C117.061 122.938 118.387 123.9 123.041 123.9C127.617 123.9 129.151 122.756 129.151 120.494ZM136.387 112.798C136.387 110.77 137.635 109.6 139.715 109.6C141.925 109.6 142.627 111.134 142.627 112.798V120H144.889V112.226C144.889 109.626 143.797 107.546 140.651 107.546C138.519 107.546 136.933 108.664 136.413 111.134H136.387V104.062H134.125V120H136.387V112.798ZM152.278 109.496C154.514 109.496 155.632 110.718 155.788 112.876H148.508C148.82 110.614 150.198 109.496 152.278 109.496ZM152.382 120.286C155.476 120.286 157.218 118.752 157.842 116.36L155.84 115.762C155.424 117.192 154.566 118.31 152.382 118.31C150.068 118.31 148.69 117.01 148.456 114.644H157.868C157.92 114.072 157.92 113.578 157.92 113.188C157.92 109.86 155.97 107.546 152.356 107.546C148.664 107.546 146.194 109.964 146.194 114.02C146.194 117.998 148.638 120.286 152.382 120.286ZM163.497 118.362C161.729 118.362 161.131 117.478 161.131 116.542C161.131 115.476 161.963 114.904 163.497 114.904H167.111V115.476C167.111 117.14 165.733 118.362 163.497 118.362ZM167.111 120H169.373V112.434C169.373 109.314 167.917 107.598 164.537 107.598C161.339 107.598 159.675 109.184 159.259 112.018L161.417 112.33C161.755 110.328 162.717 109.522 164.459 109.522C166.383 109.522 167.111 110.562 167.111 112.46V113.11H163.185C160.247 113.11 158.895 114.696 158.895 116.828C158.895 119.116 160.429 120.26 162.795 120.26C164.901 120.26 166.539 119.142 167.085 116.906H167.111V120ZM173.66 104.062H171.398V120H173.66V104.062ZM176.623 116.386C176.623 118.648 177.741 120.312 180.289 120.312C181.407 120.312 182.057 120.156 182.889 119.896L182.603 117.816C181.953 117.998 181.407 118.128 180.757 118.128C179.405 118.128 178.885 117.426 178.885 116.074V109.808H182.759V107.858H178.885V104.504H176.623V107.858H174.829V109.808H176.623V116.386ZM186.355 112.798C186.355 110.77 187.603 109.6 189.683 109.6C191.893 109.6 192.595 111.134 192.595 112.798V120H194.857V112.226C194.857 109.626 193.765 107.546 190.619 107.546C188.487 107.546 186.901 108.664 186.381 111.134H186.355V104.062H184.093V120H186.355V112.798ZM209.901 112.746L212.085 112.356C211.539 109.314 209.823 107.546 206.287 107.546C202.673 107.546 200.073 109.912 200.073 113.916C200.073 117.998 202.569 120.312 206.365 120.312C209.797 120.312 211.565 118.466 212.111 115.398L209.953 114.956C209.485 116.802 208.705 118.232 206.339 118.232C203.921 118.232 202.387 116.646 202.387 113.942C202.387 111.056 203.973 109.626 206.261 109.626C208.393 109.626 209.459 110.822 209.901 112.746ZM217.732 118.362C215.964 118.362 215.366 117.478 215.366 116.542C215.366 115.476 216.198 114.904 217.732 114.904H221.346V115.476C221.346 117.14 219.968 118.362 217.732 118.362ZM221.346 120H223.608V112.434C223.608 109.314 222.152 107.598 218.772 107.598C215.574 107.598 213.91 109.184 213.494 112.018L215.652 112.33C215.99 110.328 216.952 109.522 218.694 109.522C220.618 109.522 221.346 110.562 221.346 112.46V113.11H217.42C214.482 113.11 213.13 114.696 213.13 116.828C213.13 119.116 214.664 120.26 217.03 120.26C219.136 120.26 220.774 119.142 221.32 116.906H221.346V120ZM227.894 120V113.578C227.894 111.238 228.908 110.354 231.196 110.354H232.288V107.858H231.534C229.584 107.858 228.44 108.768 227.946 111.602H227.894V107.858H225.632V120H227.894ZM238.505 109.496C240.741 109.496 241.859 110.718 242.015 112.876H234.735C235.047 110.614 236.425 109.496 238.505 109.496ZM238.609 120.286C241.703 120.286 243.445 118.752 244.069 116.36L242.067 115.762C241.651 117.192 240.793 118.31 238.609 118.31C236.295 118.31 234.917 117.01 234.683 114.644H244.095C244.147 114.072 244.147 113.578 244.147 113.188C244.147 109.86 242.197 107.546 238.583 107.546C234.891 107.546 232.421 109.964 232.421 114.02C232.421 117.998 234.865 120.286 238.609 120.286Z" fill="#5EB1BF"/>
<path d="M10.32 57.5H18.48V47.48H28.02V40.1H18.48V30.14H10.32V40.1H0.78V47.48H10.32V57.5Z" fill="white"/>
</svg>
