<svg width="47" height="66" viewBox="0 0 47 66" fill="none" xmlns="http://www.w3.org/2000/svg">
<path d="M23.5001 2.91669C12.0513 2.91669 2.79175 12.1763 2.79175 23.625C2.79175 39.1563 23.5001 62.0834 23.5001 62.0834C23.5001 62.0834 44.2084 39.1563 44.2084 23.625C44.2084 12.1763 34.9488 2.91669 23.5001 2.91669ZM23.5001 31.0209C21.5386 31.0209 19.6574 30.2417 18.2704 28.8547C16.8835 27.4677 16.1042 25.5865 16.1042 23.625C16.1042 21.6635 16.8835 19.7824 18.2704 18.3954C19.6574 17.0084 21.5386 16.2292 23.5001 16.2292C25.4616 16.2292 27.3427 17.0084 28.7297 18.3954C30.1167 19.7824 30.8959 21.6635 30.8959 23.625C30.8959 25.5865 30.1167 27.4677 28.7297 28.8547C27.3427 30.2417 25.4616 31.0209 23.5001 31.0209Z" fill="#5EB1BF" stroke="#042A2B" stroke-width="4"/>
</svg>
